<svg width="24" height="24" viewBox="0 0 24 24" fill="none" xmlns="http://www.w3.org/2000/svg">
<path d="M15.0469 11.25C15.6719 10.625 15.9844 9.875 15.9844 9C15.9844 7.90625 15.5938 6.96875 14.8125 6.1875C14.0312 5.40625 13.0938 5.01562 12 5.01562C10.9062 5.01562 9.96875 5.40625 9.1875 6.1875C8.40625 6.96875 8.01562 7.90625 8.01562 9H9.98438C9.98438 8.46875 10.1875 8 10.5938 7.59375C11 7.1875 11.4688 6.98438 12 6.98438C12.5312 6.98438 13 7.1875 13.4062 7.59375C13.8125 8 14.0156 8.46875 14.0156 9C14.0156 9.53125 13.8125 10 13.4062 10.4062L12.1875 11.6719C11.4062 12.5156 11.0156 13.4531 11.0156 14.4844V15H12.9844C12.9844 13.9688 13.375 13.0312 14.1562 12.1875L15.0469 11.25ZM12.9844 18.9844V17.0156H11.0156V18.9844H12.9844ZM4.92188 4.96875C6.89062 3 9.25 2.01562 12 2.01562C14.75 2.01562 17.0938 3 19.0312 4.96875C21 6.90625 21.9844 9.25 21.9844 12C21.9844 14.75 21 17.1094 19.0312 19.0781C17.0938 21.0156 14.75 21.9844 12 21.9844C9.25 21.9844 6.89062 21.0156 4.92188 19.0781C2.98438 17.1094 2.01562 14.75 2.01562 12C2.01562 9.25 2.98438 6.90625 4.92188 4.96875Z" fill="#1976D2"/>
</svg>
