<svg width="24" height="24" viewBox="0 0 24 24" fill="none" xmlns="http://www.w3.org/2000/svg">
<path d="M14.9062 21.9844H14.7656C13.3281 21.6094 12.0937 20.9062 11.0625 19.875C9.62496 18.4375 8.90622 16.7031 8.90622 14.6719C8.90622 13.8594 9.20309 13.1719 9.79684 12.6094C10.3906 12.0156 11.1093 11.7188 11.9531 11.7188C12.7968 11.7188 13.5156 12.0156 14.1093 12.6094C14.7343 13.1719 15.0468 13.8594 15.0468 14.6719C15.0468 15.2031 15.2343 15.6562 15.6093 16.0312C16.0156 16.4062 16.5156 16.5938 17.1093 16.5938C17.7031 16.5938 18.2031 16.4062 18.6093 16.0312C19.0156 15.6562 19.2187 15.2031 19.2187 14.6719C19.2187 12.7969 18.5 11.1875 17.0625 9.84375C15.6562 8.5 13.9531 7.82812 11.9531 7.82812C10.5156 7.82812 9.20309 8.20312 8.01559 8.95312C6.82809 9.67188 5.93747 10.6406 5.34372 11.8594C4.96872 12.6406 4.78122 13.5781 4.78122 14.6719C4.78122 15.9219 4.99997 17.125 5.43747 18.2812C5.53122 18.5938 5.42184 18.7969 5.10934 18.8906C4.79684 18.9844 4.59372 18.8906 4.49997 18.6094C3.99997 17.2031 3.74997 15.8906 3.74997 14.6719C3.74997 13.4531 3.98434 12.375 4.45309 11.4375C5.10934 10.0312 6.10934 8.90625 7.45309 8.0625C8.82809 7.21875 10.3281 6.79688 11.9531 6.79688C14.2343 6.79688 16.1718 7.57812 17.7656 9.14062C19.3906 10.6719 20.2031 12.5156 20.2031 14.6719C20.2031 15.4844 19.8906 16.1719 19.2656 16.7344C18.6718 17.2969 17.9531 17.5781 17.1093 17.5781C16.2656 17.5781 15.5468 17.2969 14.9531 16.7344C14.3593 16.1719 14.0625 15.4844 14.0625 14.6719C14.0625 14.1406 13.8593 13.6875 13.4531 13.3125C13.0468 12.9062 12.5468 12.7031 11.9531 12.7031C11.3593 12.7031 10.8593 12.9062 10.4531 13.3125C10.0781 13.6875 9.89059 14.1406 9.89059 14.6719C9.89059 16.4219 10.5156 17.9219 11.7656 19.1719C12.6406 20.0469 13.7343 20.6562 15.0468 21C15.3281 21.0312 15.4375 21.2344 15.375 21.6094C15.3125 21.8594 15.1562 21.9844 14.9062 21.9844ZM12.4218 14.6719C12.4218 15.8281 12.8437 16.8281 13.6875 17.6719C14.5625 18.5156 15.6406 18.9375 16.9218 18.9375C16.9843 18.9375 17.125 18.9219 17.3437 18.8906C17.5625 18.8594 17.7343 18.8438 17.8593 18.8438C18.0156 18.8438 18.1562 18.875 18.2812 18.9375C18.4375 18.9688 18.5312 19.0625 18.5625 19.2188C18.625 19.5625 18.4843 19.7656 18.1406 19.8281C17.7656 19.8906 17.3593 19.9219 16.9218 19.9219C15.6718 19.9219 14.6406 19.625 13.8281 19.0312C12.2343 17.9375 11.4375 16.4844 11.4375 14.6719C11.4375 14.3281 11.6093 14.1562 11.9531 14.1562C12.2656 14.1562 12.4218 14.3281 12.4218 14.6719ZM9.74997 21.7969C9.62497 21.7969 9.51559 21.75 9.42184 21.6562C8.57809 20.8125 7.90622 19.9219 7.40622 18.9844C6.68747 17.7344 6.32809 16.2969 6.32809 14.6719C6.32809 13.2031 6.87497 11.9375 7.96872 10.875C9.09372 9.8125 10.4375 9.28125 12 9.28125C13.5625 9.28125 14.8906 9.8125 15.9843 10.875C17.1093 11.9375 17.6718 13.2031 17.6718 14.6719C17.6718 14.9844 17.5 15.1406 17.1562 15.1406C16.8125 15.1406 16.6406 14.9844 16.6406 14.6719C16.6406 13.4531 16.1875 12.4219 15.2812 11.5781C14.375 10.7031 13.2812 10.2656 12 10.2656C10.7187 10.2656 9.62497 10.7031 8.71872 11.5781C7.81247 12.4219 7.35934 13.4531 7.35934 14.6719C7.35934 16.1719 7.65622 17.4531 8.24997 18.5156C8.65622 19.2344 9.28122 20.0469 10.125 20.9531C10.375 21.1719 10.375 21.4062 10.125 21.6562C10.0312 21.75 9.90622 21.7969 9.74997 21.7969ZM3.51559 9.70312C3.29684 9.70312 3.14059 9.625 3.04684 9.46875C2.95309 9.3125 2.96872 9.14062 3.09372 8.95312C4.09372 7.51562 5.34372 6.42188 6.84372 5.67188C8.40622 4.85938 10.125 4.45312 12 4.45312C13.875 4.45312 15.5937 4.85938 17.1562 5.67188C18.6875 6.42188 19.9375 7.5 20.9062 8.90625C21.0937 9.21875 21.0468 9.45312 20.7656 9.60938C20.4531 9.79688 20.2187 9.75 20.0625 9.46875C19.2187 8.25 18.0937 7.28125 16.6875 6.5625C15.25 5.84375 13.6875 5.48438 12 5.48438C10.3125 5.45312 8.74997 5.8125 7.31247 6.5625C5.90622 7.28125 4.76559 8.26562 3.89059 9.51562C3.79684 9.64062 3.67184 9.70312 3.51559 9.70312ZM17.8125 4.45312C17.6875 4.45312 17.6093 4.4375 17.5781 4.40625C15.7343 3.46875 13.875 3 12 3C9.96871 3 8.10934 3.46875 6.42184 4.40625C6.23434 4.5 6.06247 4.5 5.90622 4.40625C5.78122 4.28125 5.71872 4.14062 5.71872 3.98438C5.71872 3.79688 5.79684 3.64062 5.95309 3.51562C7.76559 2.51562 9.78121 2.01562 12 2.01562C14.0312 2.01562 16.0468 2.51562 18.0468 3.51562C18.2656 3.64062 18.3437 3.82812 18.2812 4.07812C18.2187 4.32812 18.0625 4.45312 17.8125 4.45312Z" fill="#1976D2"/>
</svg>
