<svg width="32" height="32" viewBox="0 0 32 32" fill="none" xmlns="http://www.w3.org/2000/svg">
<rect width="32" height="32" rx="5.70302" fill="url(#paint0_linear_416_13195)"/>
<path d="M13.3371 16.041C13.3371 14.567 14.5313 13.3718 16.0049 13.3718C17.4785 13.3718 18.6734 14.567 18.6734 16.041C18.6734 17.515 17.4785 18.7103 16.0049 18.7103C14.5313 18.7103 13.3371 17.515 13.3371 16.041ZM11.8946 16.041C11.8946 18.3118 13.7348 20.1526 16.0049 20.1526C18.2751 20.1526 20.1153 18.3118 20.1153 16.041C20.1153 13.7702 18.2751 11.9295 16.0049 11.9295C13.7348 11.9295 11.8946 13.7702 11.8946 16.041ZM19.3174 11.7664C19.3174 11.9565 19.3736 12.1423 19.4791 12.3003C19.5846 12.4584 19.7346 12.5816 19.9101 12.6544C20.0856 12.7272 20.2787 12.7463 20.465 12.7093C20.6514 12.6723 20.8226 12.5808 20.957 12.4465C21.0914 12.3122 21.1829 12.141 21.2201 11.9547C21.2572 11.7683 21.2382 11.5751 21.1656 11.3995C21.093 11.2239 20.9699 11.0738 20.812 10.9681C20.6541 10.8625 20.4684 10.806 20.2784 10.806H20.278C20.0234 10.8061 19.7792 10.9073 19.599 11.0874C19.4189 11.2675 19.3177 11.5117 19.3174 11.7664ZM12.771 22.5586C11.9905 22.5231 11.5664 22.393 11.2845 22.2832C10.9107 22.1376 10.6441 21.9643 10.3637 21.6842C10.0834 21.4042 9.90981 21.1377 9.76496 20.7639C9.65507 20.482 9.52507 20.0576 9.48959 19.2769C9.45078 18.4329 9.44304 18.1794 9.44304 16.0411C9.44304 13.9028 9.45142 13.65 9.48959 12.8052C9.52513 12.0246 9.65609 11.601 9.76496 11.3183C9.91045 10.9445 10.0837 10.6777 10.3637 10.3973C10.6437 10.1168 10.9101 9.94325 11.2845 9.79835C11.5662 9.68843 11.9905 9.5584 12.771 9.52291C13.6148 9.48409 13.8682 9.47634 16.0049 9.47634C18.1416 9.47634 18.3953 9.48473 19.2398 9.52291C20.0203 9.55846 20.4437 9.68946 20.7263 9.79835C21.1001 9.94325 21.3667 10.1172 21.6471 10.3973C21.9274 10.6773 22.1004 10.9445 22.2458 11.3183C22.3557 11.6001 22.4857 12.0246 22.5212 12.8052C22.56 13.65 22.5678 13.9028 22.5678 16.0411C22.5678 18.1794 22.56 18.4322 22.5212 19.2769C22.4857 20.0576 22.355 20.4819 22.2458 20.7639C22.1004 21.1377 21.9271 21.4044 21.6471 21.6842C21.3671 21.964 21.1001 22.1376 20.7263 22.2832C20.4446 22.3931 20.0203 22.5231 19.2398 22.5586C18.3961 22.5974 18.1426 22.6052 16.0049 22.6052C13.8673 22.6052 13.6145 22.5974 12.771 22.5586ZM12.7047 8.0824C11.8525 8.12121 11.2702 8.25637 10.7617 8.45431C10.2351 8.65872 9.78923 8.93294 9.34371 9.37788C8.8982 9.82282 8.62475 10.2695 8.42041 10.7963C8.22253 11.3053 8.08741 11.8874 8.0486 12.7398C8.00915 13.5936 8.00012 13.8665 8.00012 16.041C8.00012 18.2155 8.00915 18.4884 8.0486 19.3422C8.08741 20.1947 8.22253 20.7767 8.42041 21.2857C8.62475 21.8122 8.89826 22.2594 9.34371 22.7042C9.78916 23.1489 10.2351 23.4227 10.7617 23.6277C11.2712 23.8257 11.8525 23.9608 12.7047 23.9996C13.5587 24.0385 13.8311 24.0481 16.0049 24.0481C18.1788 24.0481 18.4516 24.0391 19.3051 23.9996C20.1574 23.9608 20.7393 23.8257 21.2481 23.6277C21.7745 23.4227 22.2206 23.1491 22.6661 22.7042C23.1116 22.2592 23.3845 21.8122 23.5894 21.2857C23.7873 20.7767 23.9231 20.1946 23.9612 19.3422C24 18.4878 24.0091 18.2155 24.0091 16.041C24.0091 13.8665 24 13.5936 23.9612 12.7398C23.9224 11.8874 23.7873 11.305 23.5894 10.7963C23.3845 10.2698 23.1109 9.82353 22.6661 9.37788C22.2213 8.93224 21.7745 8.65872 21.2488 8.45431C20.7393 8.25637 20.1573 8.12057 19.3058 8.0824C18.4523 8.04358 18.1794 8.03391 16.0056 8.03391C13.8317 8.03391 13.5587 8.04294 12.7047 8.0824Z" fill="white"/>
<defs>
<linearGradient id="paint0_linear_416_13195" x1="31.385" y1="32" x2="-0.615039" y2="-8.6135e-07" gradientUnits="userSpaceOnUse">
<stop stop-color="#FBE18A"/>
<stop offset="0.21" stop-color="#FCBB45"/>
<stop offset="0.38" stop-color="#F75274"/>
<stop offset="0.52" stop-color="#D53692"/>
<stop offset="0.74" stop-color="#8F39CE"/>
<stop offset="1" stop-color="#5B4FE9"/>
</linearGradient>
</defs>
</svg>
