<svg width="24" height="24" viewBox="0 0 24 24" fill="none" xmlns="http://www.w3.org/2000/svg">
<path d="M21 18.9844V15.9844H3V18.9844H21ZM21 3C21.5312 3 22 3.20312 22.4062 3.60938C22.8125 4.01562 23.0156 4.48438 23.0156 5.01562V18.9844C23.0156 19.5156 22.8125 19.9844 22.4062 20.3906C22 20.7969 21.5312 21 21 21H3C2.46875 21 2 20.7969 1.59375 20.3906C1.1875 19.9844 0.984375 19.5156 0.984375 18.9844V5.01562C0.984375 4.48438 1.1875 4.01562 1.59375 3.60938C2 3.20312 2.46875 3 3 3H21Z" fill="#1976D2"/>
</svg>
