<svg width="32" height="32" viewBox="0 0 32 32" fill="none" xmlns="http://www.w3.org/2000/svg">
<rect x="-0.00012207" y="-0.000213623" width="32" height="32" rx="5.70302" fill="#FFF853"/>
<path d="M14.1818 9.39122L16.5454 8.86948H17.4545L20 10.0869L21.2727 12.6956V14.6086L22.9091 14.4347V14.9564V15.826L21.8181 16.1738L21.4545 16.6956L22.3636 18.4347L24.7272 19.6521L24.1818 20.3477L22.5454 20.8695L22.1818 21.5651L21.8181 22.0869H19.8181L18.9091 22.4347L16.9091 23.4782L15.6363 23.1303L14.1818 22.4347L13.0909 22.0869H11.6363L11.0909 21.739L10.5454 20.8695L9.63633 20.6956L8.90906 20.1738V19.6521L9.81815 19.1303L11.4545 17.913L11.8181 16.6956L10.3636 15.826L10.5454 14.9564L11.0909 14.4347L12.1818 14.6086L12.7272 11.4782L14.1818 9.39122Z" fill="white"/>
<path d="M16.6851 9.34628C18.9207 9.34699 20.783 11.1289 20.7857 13.2744C20.7863 13.777 20.8025 14.2397 20.8321 14.666C20.8504 14.929 21.0789 15.1239 21.3409 15.1239C21.3795 15.1239 21.4188 15.1197 21.4583 15.1108L22.1587 14.9537C22.1885 14.947 22.2184 14.9437 22.2479 14.9437C22.4258 14.9437 22.5896 15.0601 22.6295 15.2324C22.686 15.476 22.5435 15.722 22.297 15.8048L21.2339 16.2156C20.9655 16.3194 20.8213 16.599 20.8969 16.8665C21.7498 19.8853 24.1321 19.5713 24.1321 19.9646C24.1321 20.4585 22.3365 20.5282 22.1742 20.6836C22.012 20.8389 22.1672 21.5928 21.8047 21.7387C21.7364 21.7663 21.6393 21.7758 21.5209 21.7758C21.2479 21.7758 20.8618 21.7248 20.4548 21.7248C20.1018 21.7248 19.7332 21.7632 19.409 21.9065C18.5491 22.2868 17.7201 22.9971 16.6925 22.9971C15.6648 22.9971 14.8358 22.2868 13.9759 21.9065C13.6517 21.7632 13.2831 21.7248 12.9301 21.7248C12.5231 21.7248 12.137 21.7758 11.864 21.7758C11.7456 21.7758 11.6485 21.7662 11.5802 21.7387C11.2177 21.5928 11.3729 20.8389 11.2107 20.6836C11.0485 20.5282 9.25283 20.4585 9.25283 19.9646C9.25283 19.5713 11.6351 19.8852 12.488 16.8665C12.5636 16.599 12.4194 16.3194 12.151 16.2156L11.0879 15.8047C10.8414 15.722 10.6989 15.4759 10.7553 15.2324C10.7953 15.06 10.9591 14.9437 11.1369 14.9437C11.1665 14.9437 11.1964 14.9469 11.2262 14.9536L11.9266 15.1108C11.9661 15.1197 12.0054 15.1239 12.0439 15.1239C12.3059 15.1239 12.5345 14.9289 12.5527 14.666C12.5824 14.2397 12.5986 13.7769 12.5992 13.2744C12.6019 11.1289 14.4494 9.34702 16.6851 9.34628ZM16.6853 8.495H16.6847C16.0174 8.4952 15.3673 8.62357 14.7527 8.87657C14.1626 9.11939 13.6316 9.46562 13.1743 9.90567C12.7177 10.3451 12.3583 10.8553 12.1062 11.4221C11.8441 12.0114 11.7108 12.6343 11.71 13.2734C11.7096 13.5871 11.7028 13.8917 11.6897 14.1833L11.4291 14.1248C11.3335 14.1033 11.2352 14.0924 11.137 14.0924C10.8534 14.0924 10.5737 14.1841 10.3493 14.3508C10.1153 14.5246 9.95113 14.7722 9.88721 15.0479C9.73509 15.7042 10.1136 16.3667 10.7695 16.5997L11.5498 16.9013C11.0331 18.4195 10.0804 18.7104 9.43892 18.9064C9.26869 18.9584 9.12166 19.0033 8.98167 19.0698C8.42386 19.3348 8.36365 19.7839 8.36365 19.9646C8.36365 20.3108 8.5348 20.6267 8.84562 20.8542C9.00037 20.9674 9.19208 21.0608 9.43166 21.1398C9.75821 21.2474 10.1368 21.3158 10.4444 21.3705C10.4593 21.4796 10.4811 21.5969 10.5178 21.715C10.6704 22.2057 10.9923 22.4255 11.2355 22.5234C11.4663 22.6163 11.7047 22.627 11.864 22.627C12.0198 22.627 12.1844 22.6154 12.3588 22.603C12.5458 22.5897 12.7393 22.576 12.9301 22.576C13.2258 22.576 13.4459 22.6098 13.603 22.6793C13.8187 22.7747 14.0475 22.9033 14.2897 23.0395C14.964 23.4186 15.7282 23.8483 16.6925 23.8483C17.6567 23.8483 18.4209 23.4186 19.0952 23.0395C19.3374 22.9033 19.5662 22.7747 19.7819 22.6793C19.939 22.6098 20.1591 22.576 20.4548 22.576C20.6457 22.576 20.8391 22.5897 21.0261 22.603C21.2004 22.6154 21.3651 22.627 21.5209 22.627C21.6802 22.627 21.9186 22.6163 22.1494 22.5234C22.3926 22.4255 22.7145 22.2057 22.8671 21.715C22.9038 21.5969 22.9256 21.4796 22.9405 21.3705C23.2481 21.3157 23.6267 21.2474 23.9532 21.1398C24.1928 21.0608 24.3845 20.9674 24.5393 20.8542C24.85 20.6267 25.0212 20.3108 25.0212 19.9646C25.0212 19.7839 24.961 19.3348 24.4031 19.0698C24.2632 19.0033 24.1161 18.9584 23.9459 18.9064C23.3044 18.7105 22.3517 18.4195 21.835 16.9013L22.6152 16.5998C23.2712 16.3668 23.6497 15.7042 23.4976 15.0479C23.4337 14.7722 23.2695 14.5246 23.0355 14.3508C22.8111 14.1842 22.5314 14.0924 22.2479 14.0924C22.1497 14.0924 22.0514 14.1033 21.9558 14.1247L21.6952 14.1832C21.6821 13.8917 21.6753 13.5871 21.6749 13.2733C21.6741 12.6337 21.5397 12.0102 21.2755 11.4201C21.0218 10.8537 20.6605 10.3436 20.2015 9.9041C19.7426 9.46464 19.2101 9.11878 18.6189 8.87616C18.003 8.62347 17.3525 8.49523 16.6853 8.495Z" fill="#050505"/>
</svg>
