<svg width="32" height="32" viewBox="0 0 32 32" fill="none" xmlns="http://www.w3.org/2000/svg">
<rect width="32" height="32" rx="5.70302" fill="#33CCFF"/>
<path d="M23.9421 10.9337C23.4137 11.1613 22.8582 11.3198 22.2894 11.4053C22.5553 11.3596 22.9467 10.8805 23.1024 10.6866C23.3391 10.394 23.5195 10.0601 23.6343 9.70167C23.6343 9.67505 23.6609 9.63702 23.6343 9.61801C23.6209 9.61068 23.6059 9.60685 23.5907 9.60685C23.5754 9.60685 23.5604 9.61068 23.547 9.61801C22.9293 9.9528 22.2719 10.2083 21.5903 10.3785C21.5666 10.3858 21.5413 10.3865 21.5172 10.3804C21.4931 10.3744 21.4711 10.3619 21.4536 10.3443C21.4005 10.2811 21.3434 10.2214 21.2826 10.1656C21.0046 9.91631 20.6892 9.71228 20.348 9.56097C19.8873 9.37181 19.3897 9.2899 18.8928 9.3214C18.4107 9.35188 17.9399 9.48132 17.5099 9.70167C17.0864 9.93398 16.7142 10.2496 16.4157 10.6295C16.1017 11.0206 15.875 11.4744 15.7508 11.9605C15.6484 12.4228 15.6368 12.9007 15.7166 13.3674C15.7166 13.4473 15.7166 13.4587 15.6482 13.4473C12.9393 13.048 10.7167 12.0859 8.90068 10.0211C8.8209 9.92983 8.77911 9.92983 8.71452 10.0211C7.92426 11.2227 8.30799 13.1241 9.29581 14.0633C9.42879 14.1888 9.56556 14.3105 9.70993 14.4246C9.25703 14.3924 8.81518 14.2696 8.41057 14.0633C8.33459 14.0139 8.2928 14.0405 8.289 14.1318C8.27823 14.2583 8.27823 14.3855 8.289 14.512C8.36827 15.1184 8.60703 15.6928 8.98085 16.1766C9.35467 16.6603 9.85014 17.036 10.4166 17.2652C10.5547 17.3244 10.6986 17.369 10.8459 17.3983C10.4266 17.4809 9.99662 17.4937 9.57316 17.4363C9.48198 17.4173 9.44778 17.4667 9.48198 17.5542C10.0405 19.0753 11.2524 19.5392 12.1415 19.7978C12.2631 19.8168 12.3846 19.8168 12.5214 19.8472C12.5214 19.8472 12.5214 19.8472 12.4986 19.87C12.2365 20.3491 11.1765 20.6724 10.6902 20.8397C9.80251 21.1588 8.85612 21.2808 7.91667 21.1971C7.76849 21.1743 7.7343 21.1781 7.69631 21.1971C7.65831 21.2162 7.69631 21.258 7.7381 21.296C7.92806 21.4215 8.11803 21.5318 8.31559 21.6383C8.90374 21.9593 9.52553 22.2144 10.1696 22.3988C13.5054 23.319 17.2591 22.6422 19.7629 20.1514C21.7309 18.1968 22.4224 15.5007 22.4224 12.8008C22.4224 12.6982 22.5477 12.6373 22.6199 12.5841C23.1178 12.1958 23.5568 11.7372 23.9231 11.2227C23.9865 11.146 24.0191 11.0484 24.0143 10.9489C24.0143 10.8919 24.0143 10.9033 23.9421 10.9337Z" fill="white"/>
</svg>
