<svg width="22" height="22" viewBox="0 0 22 22" fill="none" xmlns="http://www.w3.org/2000/svg">
<path d="M13.852 2.64478C13.9212 3.54861 13.6353 4.44384 13.0552 5.14032C12.7773 5.48587 12.4247 5.76387 12.0239 5.95338C11.6231 6.1429 11.1845 6.239 10.7411 6.23443C10.7128 5.79979 10.7705 5.36383 10.9108 4.95148C11.0511 4.53913 11.2713 4.15847 11.5588 3.83128C12.1468 3.16151 12.9656 2.73787 13.852 2.64478Z" fill="black"/>
<path d="M15.4688 9.22314C15.1743 9.74214 15.0158 10.3272 15.0081 10.9239C15.0088 11.5952 15.2071 12.2513 15.5782 12.8106C15.9494 13.3699 16.4769 13.8076 17.0951 14.0691C16.8521 14.8586 16.4857 15.6048 16.0096 16.28C15.3701 17.2365 14.6997 18.171 13.6356 18.1882C13.1296 18.1999 12.788 18.0544 12.432 17.9027C12.0607 17.7446 11.6738 17.5797 11.0683 17.5797C10.4262 17.5797 10.022 17.7499 9.63212 17.9139C9.2952 18.0557 8.96902 18.193 8.50932 18.2121C7.49594 18.2496 6.72148 17.1912 6.05881 16.2437C4.73433 14.3086 3.70301 10.7904 5.08564 8.39655C5.40484 7.82296 5.86716 7.34185 6.42758 7.00007C6.988 6.65829 7.62739 6.46751 8.28346 6.44631C8.85821 6.43449 9.40972 6.65601 9.89324 6.85023C10.263 6.99876 10.593 7.13132 10.8633 7.13132C11.1008 7.13132 11.4217 7.00399 11.7955 6.8556C12.3845 6.62186 13.1051 6.33585 13.8395 6.41294C14.4023 6.43054 14.9532 6.57914 15.4485 6.84692C15.9438 7.11469 16.3699 7.49428 16.6929 7.95552C16.1845 8.26807 15.7634 8.70413 15.4688 9.22314Z" fill="black"/>
</svg>
