<svg width="24" height="24" viewBox="0 0 24 24" fill="none" xmlns="http://www.w3.org/2000/svg">
<path d="M17.0156 12.9844V11.0156H12.9844V6.98438H11.0156V11.0156H6.98438V12.9844H11.0156V17.0156H12.9844V12.9844H17.0156ZM18.9844 3C19.5156 3 19.9844 3.20312 20.3906 3.60938C20.7969 4.01562 21 4.48438 21 5.01562V18.9844C21 19.5156 20.7969 19.9844 20.3906 20.3906C19.9844 20.7969 19.5156 21 18.9844 21H5.01562C4.45312 21 3.96875 20.7969 3.5625 20.3906C3.1875 19.9844 3 19.5156 3 18.9844V5.01562C3 4.48438 3.1875 4.01562 3.5625 3.60938C3.96875 3.20312 4.45312 3 5.01562 3H18.9844Z" fill="white"/>
</svg>
