<svg width="26" height="26" viewBox="0 0 26 26" fill="none" xmlns="http://www.w3.org/2000/svg">
<path fill-rule="evenodd" clip-rule="evenodd" d="M4.32844 3.4613C4.66048 3.15946 5.17434 3.18392 5.47619 3.51596L21.7262 21.391C22.028 21.723 22.0036 22.2369 21.6715 22.5387C21.3395 22.8406 20.8256 22.8161 20.5238 22.4841L4.27379 4.60905C3.97194 4.27702 3.99641 3.76315 4.32844 3.4613Z" fill="#3B3B40"/>
<path fill-rule="evenodd" clip-rule="evenodd" d="M10.8692 9.4473C11.171 9.77936 11.1465 10.2932 10.8144 10.595C10.329 11.0362 9.98846 11.614 9.83755 12.2524C9.68665 12.8907 9.73244 13.5598 9.96892 14.1717C10.2054 14.7835 10.6215 15.3095 11.1625 15.6805C11.7035 16.0514 12.3441 16.25 13 16.25L13.003 16.2501C13.8099 16.2531 14.5882 15.9522 15.1831 15.4072C15.514 15.1041 16.028 15.1266 16.3311 15.4575C16.6342 15.7883 16.6117 16.3023 16.2808 16.6054C15.385 17.426 14.2132 17.8793 12.9984 17.875C12.0149 17.8746 11.0546 17.5768 10.2435 17.0207C9.43204 16.4642 8.80791 15.6753 8.45319 14.7575C8.09848 13.8397 8.02978 12.8361 8.25614 11.8785C8.48249 10.921 8.99331 10.0544 9.72142 9.39254C10.0535 9.09072 10.5673 9.11524 10.8692 9.4473Z" fill="#3B3B40"/>
<path fill-rule="evenodd" clip-rule="evenodd" d="M8.24098 6.60102C8.44323 7.00159 8.28246 7.49027 7.88189 7.69252C5.95067 8.66759 4.56679 10.0801 3.66155 11.2622C3.21028 11.8515 2.8825 12.3776 2.66916 12.7531C2.617 12.8449 2.57176 12.9275 2.53332 12.9996C2.62891 13.1787 2.76625 13.422 2.94739 13.7097C3.35449 14.3563 3.97817 15.2197 4.84021 16.0818C6.5596 17.8012 9.20778 19.5 13.0001 19.5H13.0067C14.7814 19.5145 16.5339 19.1056 18.1189 18.3072C18.5197 18.1053 19.0082 18.2666 19.2101 18.6673C19.4119 19.0681 19.2507 19.5566 18.85 19.7585C17.0351 20.6726 15.0286 21.1411 12.9967 21.125C8.66576 21.124 5.62752 19.1672 3.69116 17.2308C2.72508 16.2647 2.02845 15.3 1.57226 14.5755C1.34377 14.2126 1.17445 13.9081 1.06084 13.6913C1.00401 13.5828 0.96103 13.496 0.931482 13.4346C0.916705 13.4039 0.905278 13.3796 0.89715 13.362L0.88742 13.3408L0.884396 13.3341L0.883341 13.3317L0.882928 13.3308C0.882928 13.3308 0.882591 13.33 1.62506 13C0.882276 12.6708 0.882516 12.6702 0.882516 12.6702L0.88348 12.6681L0.885339 12.6639L0.891032 12.6513C0.895706 12.6411 0.902146 12.6271 0.91037 12.6096C0.926818 12.5747 0.950419 12.5255 0.981341 12.4636C1.04316 12.3398 1.13438 12.1648 1.25635 11.9502C1.50005 11.5214 1.86797 10.9316 2.37139 10.2742C3.37553 8.96295 4.93695 7.35904 7.14949 6.24193C7.55005 6.03968 8.03873 6.20045 8.24098 6.60102ZM1.62506 13L0.882516 12.6702C0.789456 12.8801 0.78933 13.1202 0.882591 13.33L1.62506 13Z" fill="#3B3B40"/>
<path fill-rule="evenodd" clip-rule="evenodd" d="M10.7635 5.05883C11.5028 4.93507 12.2512 4.87359 13.0008 4.87502L13 5.68752V4.87502H13.0008C17.3331 4.87527 20.3722 6.83251 22.3089 8.76925C23.275 9.73533 23.9716 10.7 24.4278 11.4245C24.6563 11.7874 24.8256 12.0919 24.9392 12.3088C24.996 12.4173 25.039 12.5041 25.0686 12.5654C25.0834 12.5961 25.0948 12.6205 25.1029 12.6381L25.1126 12.6593L25.1157 12.666L25.1167 12.6684L25.1171 12.6693C25.1171 12.6693 25.1175 12.67 24.375 13C23.6325 12.67 23.6327 12.6697 23.6327 12.6697L23.6265 12.6831C23.6207 12.6955 23.6112 12.7158 23.5978 12.7434C23.571 12.7987 23.5289 12.883 23.4709 12.9918C23.4695 12.9946 23.468 12.9973 23.4665 13C23.3709 12.821 23.2337 12.5778 23.0527 12.2904C22.6456 11.6438 22.0219 10.7803 21.1598 9.9183C19.4405 8.19891 16.7923 6.50002 13 6.50002H12.9984C12.3395 6.49872 11.6816 6.55275 11.0318 6.66153C10.5892 6.73562 10.1704 6.4369 10.0963 5.99432C10.0222 5.55175 10.3209 5.13291 10.7635 5.05883ZM24.375 13L25.1175 13.33C25.2108 13.1199 25.2108 12.8801 25.1175 12.67L24.375 13ZM23.4665 13C23.3504 13.2175 23.173 13.5292 22.9307 13.8998C22.4388 14.6521 21.6859 15.6369 20.6442 16.5687C20.3098 16.8678 20.2812 17.3815 20.5803 17.7159C20.8795 18.0504 21.3932 18.079 21.7276 17.7798C22.9 16.7311 23.7417 15.6288 24.2908 14.7891C24.5659 14.3684 24.7692 14.0111 24.9052 13.7556C24.9733 13.6279 25.0246 13.5253 25.0598 13.4529C25.0773 13.4166 25.0909 13.3879 25.1005 13.3672L25.1119 13.3423L25.1154 13.3346L25.1166 13.3319L25.1171 13.3308C25.1171 13.3308 25.1175 13.33 24.375 13C23.6325 13.33 23.6328 13.3306 23.6328 13.3306L23.6279 13.32C23.6233 13.3099 23.6155 13.2932 23.6044 13.2704C23.5824 13.2246 23.5476 13.1543 23.4997 13.0628C23.4893 13.0429 23.4782 13.0219 23.4665 13Z" fill="#3B3B40"/>
<path fill-rule="evenodd" clip-rule="evenodd" d="M12.9634 8.85731C13.0469 8.41642 13.472 8.12673 13.9129 8.21027C14.9501 8.40678 15.8952 8.93532 16.6056 9.71611C17.316 10.4969 17.7532 11.4876 17.8511 12.5386C17.8928 12.9854 17.5643 13.3814 17.1175 13.423C16.6707 13.4647 16.2748 13.1362 16.2331 12.6894C16.1679 11.9895 15.8767 11.3297 15.4036 10.8097C14.9305 10.2897 14.3011 9.93773 13.6104 9.80686C13.1695 9.72332 12.8798 9.29819 12.9634 8.85731Z" fill="#3B3B40"/>
</svg>
