<svg width="32" height="32" viewBox="0 0 32 32" fill="none" xmlns="http://www.w3.org/2000/svg">
<path d="M11.3125 18L6.6875 24H25.3125L19.3125 16L14.6875 22L11.3125 18ZM28 25.3125C28 26.0208 27.7292 26.6458 27.1875 27.1875C26.6458 27.7292 26.0208 28 25.3125 28H6.6875C5.97917 28 5.35417 27.7292 4.8125 27.1875C4.27083 26.6458 4 26.0208 4 25.3125V6.6875C4 5.97917 4.27083 5.35417 4.8125 4.8125C5.35417 4.27083 5.97917 4 6.6875 4H25.3125C26.0208 4 26.6458 4.27083 27.1875 4.8125C27.7292 5.35417 28 5.97917 28 6.6875V25.3125Z" fill="#FD5564"/>
</svg>
