<svg width="18" height="20" viewBox="0 0 18 20" fill="none" xmlns="http://www.w3.org/2000/svg">
<g clip-path="url(#clip0_385_11082)">
<path d="M18 10.2391C18 9.56523 17.94 8.86958 17.84 8.21741H9.17999V12.0652H14.14C13.94 13.3044 13.28 14.3913 12.3 15.087L15.26 17.587C17 15.8261 18 13.2609 18 10.2391Z" fill="#4280EF"/>
<path d="M9.17998 19.9783C11.66 19.9783 13.74 19.087 15.26 17.5652L12.3 15.087C11.48 15.6957 10.42 16.0435 9.17998 16.0435C6.77998 16.0435 4.75998 14.2826 4.01998 11.9348L0.97998 14.4783C2.53998 17.8479 5.69998 19.9783 9.17998 19.9783Z" fill="#34A353"/>
<path d="M4.02 11.913C3.64 10.6739 3.64 9.32608 4.02 8.08695L0.980005 5.52173C-0.319995 8.34782 -0.319995 11.6739 0.980005 14.4783L4.02 11.913Z" fill="#F6B704"/>
<path d="M9.17998 3.97827C10.48 3.95653 11.76 4.5 12.7 5.47827L15.32 2.6087C13.66 0.913046 11.46 2.58908e-06 9.17998 0.0217417C5.69998 0.0217417 2.53998 2.15218 0.97998 5.52174L4.01998 8.08696C4.75998 5.7174 6.77998 3.97827 9.17998 3.97827Z" fill="#E54335"/>
</g>
<defs>
<clipPath id="clip0_385_11082">
<rect width="18" height="20" fill="white"/>
</clipPath>
</defs>
</svg>
