<svg width="24" height="24" viewBox="0 0 24 24" fill="none" xmlns="http://www.w3.org/2000/svg">
<path d="M19.5 2.25H6.74062C5.09719 2.25 3.75656 3.58312 3.75 5.22563V20.2294C3.75 20.2359 3.75 20.2434 3.75 20.25V21C3.75 21.4144 4.08562 21.75 4.5 21.75H18C18.4144 21.75 18.75 21.4144 18.75 21C18.75 20.5856 18.4144 20.25 18 20.25H5.25V20.2331C5.25375 19.4175 5.9175 18.7537 6.73125 18.75H19.5C19.9144 18.75 20.25 18.4144 20.25 18V3C20.25 2.58562 19.9144 2.25 19.5 2.25ZM18.75 17.25H6.72844C6.19031 17.2519 5.68594 17.3972 5.25 17.6484V5.23406C5.25188 4.83562 5.40844 4.4625 5.69063 4.18219C5.97188 3.90375 6.34406 3.75 6.74344 3.75H18.75V17.25Z" fill="#1976D2"/>
</svg>
