<svg width="32" height="32" viewBox="0 0 32 32" fill="none" xmlns="http://www.w3.org/2000/svg">
<path fill-rule="evenodd" clip-rule="evenodd" d="M20.0001 15.3333C20.0001 17.5466 18.2134 19.3333 16.0001 19.3333C13.7867 19.3333 12.0001 17.5466 12.0001 15.3333V7.33325C12.0001 5.11992 13.7867 3.33325 16.0001 3.33325C18.2134 3.33325 20.0001 5.11992 20.0001 7.33325V15.3333ZM16.0001 21.9999C19.6801 21.9999 22.6667 19.0133 22.6667 15.3333H25.3334C25.3334 20.0399 21.8534 23.9066 17.3334 24.5599V28.6666H14.6667V24.5599C10.1467 23.9066 6.66675 20.0399 6.66675 15.3333H9.33341C9.33341 19.0133 12.3201 21.9999 16.0001 21.9999Z" fill="#FD5564"/>
</svg>
