<svg width="27" height="27" viewBox="0 0 27 27" fill="none" xmlns="http://www.w3.org/2000/svg">
<path d="M16.7664 22.7812H10.0164C9.55021 22.7812 9.17264 23.1588 9.17264 23.625C9.17264 24.0912 9.55021 24.4688 10.0164 24.4688H16.7664C17.2326 24.4688 17.6101 24.0912 17.6101 23.625C17.6101 23.1588 17.2326 22.7812 16.7664 22.7812Z" fill="#3B3B40"/>
<path d="M23.182 18.5614C22.5556 17.4793 21.8088 15.4301 21.8088 11.8125V11.0637C21.8078 6.39352 18.0584 2.56605 13.4494 2.53125H13.3903C11.1396 2.53441 9.02392 3.41402 7.43557 5.00766C5.84615 6.60129 4.97287 8.71805 4.97603 10.9688V11.8125C4.97603 15.4301 4.22932 17.4793 3.60178 18.5625C3.45412 18.8167 3.37502 19.1067 3.37502 19.3999C3.37291 19.8503 3.54693 20.2753 3.86545 20.5949C4.18396 20.9145 4.60584 21.0916 5.06041 21.0938H21.7266C22.0208 21.0938 22.3109 21.0146 22.564 20.868C22.9542 20.6423 23.2337 20.2785 23.3508 19.8439C23.4679 19.4084 23.4078 18.9538 23.182 18.5625V18.5614ZM5.06252 19.4073C5.79236 18.1459 6.66353 15.8045 6.66353 11.8125V10.9688C6.66142 9.16734 7.35963 7.47352 8.63053 6.19945C9.90142 4.92434 11.5931 4.22086 13.3946 4.21875H13.4388C17.1239 4.24723 20.1213 7.31742 20.1213 11.0637V11.8125C20.1213 15.8045 20.9915 18.1459 21.7245 19.4062H5.06252V19.4073Z" fill="#3B3B40"/>
<circle cx="20" cy="7" r="3" fill="#FF3B30"/>
</svg>
