<svg width="32" height="32" viewBox="0 0 32 32" fill="none" xmlns="http://www.w3.org/2000/svg">
<path d="M11.25 20.75C12.5833 22.0417 14.1667 22.6875 16 22.6875C17.8333 22.6875 19.3958 22.0417 20.6875 20.75C22.0208 19.4167 22.6875 17.8333 22.6875 16C22.6875 14.1667 22.0208 12.6042 20.6875 11.3125C19.3958 9.97917 17.8333 9.3125 16 9.3125C14.1667 9.3125 12.5833 9.97917 11.25 11.3125C9.95833 12.6042 9.3125 14.1667 9.3125 16C9.3125 17.8333 9.95833 19.4167 11.25 20.75ZM12 2.6875H20L22.4375 5.3125H26.6875C27.3958 5.3125 28 5.58333 28.5 6.125C29.0417 6.66667 29.3125 7.29167 29.3125 8V24C29.3125 24.7083 29.0417 25.3333 28.5 25.875C28 26.4167 27.3958 26.6875 26.6875 26.6875H5.3125C4.60417 26.6875 3.97917 26.4167 3.4375 25.875C2.9375 25.3333 2.6875 24.7083 2.6875 24V8C2.6875 7.29167 2.9375 6.66667 3.4375 6.125C3.97917 5.58333 4.60417 5.3125 5.3125 5.3125H9.5625L12 2.6875ZM13 19C12.1667 18.1667 11.75 17.1667 11.75 16C11.75 14.8333 12.1667 13.8333 13 13C13.8333 12.1667 14.8333 11.75 16 11.75C17.1667 11.75 18.1667 12.1667 19 13C19.8333 13.8333 20.25 14.8333 20.25 16C20.25 17.1667 19.8333 18.1667 19 19C18.1667 19.8333 17.1667 20.25 16 20.25C14.8333 20.25 13.8333 19.8333 13 19Z" fill="#FD5564"/>
</svg>
