<svg width="46" height="37" viewBox="0 0 46 37" fill="none" xmlns="http://www.w3.org/2000/svg">
<rect x="34.7686" y="3.94034" width="20" height="28" rx="2.5" transform="rotate(60 34.7686 3.94034)" fill="#FD5564"/>
<rect x="34.7686" y="3.94034" width="20" height="28" rx="2.5" transform="rotate(60 34.7686 3.94034)" stroke="white"/>
<rect x="26.5085" y="1.49593" width="20" height="28" rx="2.5" transform="rotate(45 26.5085 1.49593)" fill="#FD5564"/>
<rect x="26.5085" y="1.49593" width="20" height="28" rx="2.5" transform="rotate(45 26.5085 1.49593)" stroke="white"/>
<rect x="17.3253" y="0.683013" width="20" height="28" rx="2.5" transform="rotate(30 17.3253 0.683013)" fill="#FD5564"/>
<rect x="17.3253" y="0.683013" width="20" height="28" rx="2.5" transform="rotate(30 17.3253 0.683013)" stroke="white"/>
<rect x="8.7161" y="1.8194" width="20" height="28" rx="2.5" transform="rotate(15 8.7161 1.8194)" fill="#FD5564"/>
<rect x="8.7161" y="1.8194" width="20" height="28" rx="2.5" transform="rotate(15 8.7161 1.8194)" stroke="white"/>
<rect x="0.5" y="6.19116" width="20" height="28" rx="2.5" fill="#FD5564"/>
<rect x="0.5" y="6.19116" width="20" height="28" rx="2.5" stroke="white"/>
</svg>
