<svg width="84" height="84" viewBox="0 0 84 84" fill="none" xmlns="http://www.w3.org/2000/svg">
<g filter="url(#filter0_d_516_13294)">
<rect x="10" y="6" width="64" height="64" rx="15" fill="#FD5564"/>
<rect x="55.7686" y="23.9403" width="20" height="28" rx="2.5" transform="rotate(60 55.7686 23.9403)" fill="#FD5564"/>
<rect x="55.7686" y="23.9403" width="20" height="28" rx="2.5" transform="rotate(60 55.7686 23.9403)" stroke="white"/>
<rect x="47.5085" y="21.4959" width="20" height="28" rx="2.5" transform="rotate(45 47.5085 21.4959)" fill="#FD5564"/>
<rect x="47.5085" y="21.4959" width="20" height="28" rx="2.5" transform="rotate(45 47.5085 21.4959)" stroke="white"/>
<rect x="38.3253" y="20.683" width="20" height="28" rx="2.5" transform="rotate(30 38.3253 20.683)" fill="#FD5564"/>
<rect x="38.3253" y="20.683" width="20" height="28" rx="2.5" transform="rotate(30 38.3253 20.683)" stroke="white"/>
<rect x="29.7161" y="21.8194" width="20" height="28" rx="2.5" transform="rotate(15 29.7161 21.8194)" fill="#FD5564"/>
<rect x="29.7161" y="21.8194" width="20" height="28" rx="2.5" transform="rotate(15 29.7161 21.8194)" stroke="white"/>
<rect x="21.5" y="26.1912" width="20" height="28" rx="2.5" fill="#FD5564"/>
<rect x="21.5" y="26.1912" width="20" height="28" rx="2.5" stroke="white"/>
</g>
<defs>
<filter id="filter0_d_516_13294" x="0" y="0" width="84" height="84" filterUnits="userSpaceOnUse" color-interpolation-filters="sRGB">
<feFlood flood-opacity="0" result="BackgroundImageFix"/>
<feColorMatrix in="SourceAlpha" type="matrix" values="0 0 0 0 0 0 0 0 0 0 0 0 0 0 0 0 0 0 127 0" result="hardAlpha"/>
<feOffset dy="4"/>
<feGaussianBlur stdDeviation="5"/>
<feComposite in2="hardAlpha" operator="out"/>
<feColorMatrix type="matrix" values="0 0 0 0 0 0 0 0 0 0 0 0 0 0 0 0 0 0 0.2 0"/>
<feBlend mode="normal" in2="BackgroundImageFix" result="effect1_dropShadow_516_13294"/>
<feBlend mode="normal" in="SourceGraphic" in2="effect1_dropShadow_516_13294" result="shape"/>
</filter>
</defs>
</svg>
